<?xml version="1.0" encoding="iso-8859-1"?>
<!-- Uploaded to: SVG Repo, www.svgrepo.com, Generator: SVG Repo Mixer Tools -->
<!DOCTYPE svg PUBLIC "-//W3C//DTD SVG 1.1//EN" "http://www.w3.org/Graphics/SVG/1.1/DTD/svg11.dtd">
<svg fill="#ffffff" height="800px" width="800px" version="1.1" id="Capa_1" xmlns="http://www.w3.org/2000/svg" xmlns:xlink="http://www.w3.org/1999/xlink"
	 viewBox="0 0 297 297" xml:space="preserve">
<g>
	<path d="M156.447,123.301c3.467,0.305,6.679,0.802,9.399,1.482l25.649,6.411c8.799,2.2,16.184,9.259,19.521,17.738h14.269V65.975
		h-68.838V123.301z"/>
	<path d="M43.476,190.652v6.083l40.593,13.482v-45.392H69.302C55.061,164.826,43.476,176.411,43.476,190.652z"/>
	<path d="M161.992,140.201c-3.439-0.859-8.355-1.352-13.491-1.352c-5.136,0-10.053,0.492-13.491,1.352l-25.648,6.412
		c-4.919,1.23-9.399,6.969-9.399,12.039v56.037c0,4.381,3.565,7.946,7.946,7.946h81.186c4.382,0,7.946-3.566,7.946-7.946v-56.037
		c0-5.07-4.48-10.809-9.399-12.039L161.992,140.201z"/>
	<path d="M212.934,164.826v45.365l40.595-13.616v-5.923c0-14.24-11.585-25.826-25.826-25.826H212.934z"/>
	<path d="M253.528,225.051v-11.619l-44.987,15.02c-4.323,6.091-11.426,10.076-19.447,10.076h-81.186
		c-8.052,0-15.177-4.016-19.496-10.146l-44.937-14.954v11.623c0,14.241,11.585,25.826,25.826,25.826h158.4
		C241.944,250.877,253.528,239.292,253.528,225.051z"/>
	<path d="M71.719,148.933h14.267c3.337-8.48,10.722-15.538,19.521-17.738l25.649-6.411c2.721-0.681,5.933-1.178,9.399-1.482V65.975
		H71.719V148.933z"/>
	<path d="M227.702,266.77h-32.649v6.176c0,13.264,11.585,24.055,25.826,24.055h10.579c14.241,0,25.826-10.791,25.826-24.055v-18.508
		C249.723,262.049,239.254,266.77,227.702,266.77z"/>
	<path d="M241.178,64.846v54.409h4.591c5.485,0,9.933-4.448,9.933-9.934V74.779c0-5.485-4.448-9.933-9.933-9.933H241.178z"/>
	<path d="M69.302,266.77c-11.554,0-22.024-4.723-29.586-12.338v18.514c0,13.264,11.585,24.055,25.826,24.055h10.581
		c14.241,0,25.826-10.791,25.826-24.055v-6.176H69.302z"/>
	<path d="M234.3,50.082V29.537l10.463-13.526c3.356-4.34,2.56-10.578-1.78-13.934c-4.34-3.356-10.578-2.561-13.934,1.779
		l-9.557,12.355H77.51L67.953,3.856c-3.355-4.34-9.593-5.135-13.934-1.779c-4.34,3.356-5.137,9.595-1.78,13.934l10.463,13.526
		v20.545h19.866V36.077h131.865v14.005H234.3z"/>
	<path d="M51.234,119.255h4.592V64.846h-4.592c-5.485,0-9.934,4.447-9.934,9.933v34.543C41.3,114.807,45.748,119.255,51.234,119.255
		z"/>
</g>
</svg>